{"title":"Finding Forrester (2000) x264 Eng(5.1) Hun(sep.) multisub(25)","uid":5264935,"size":3009577908,"categoryP":"video","categoryS":"movies","magnet":"?xt=urn:btih:4ab4a0a6a60cf743ebd7bf0be4a5c9ae992ea57f&amp;dn=Finding+Forrester+%282000%29+x264+Eng%285.1%29+Hun%28sep.%29+multisub%2825%29&amp;tr=udp%3A%2F%2Ftracker.openbittorrent.com%3A80&amp;tr=udp%3A%2F%2Fopen.demonii.com%3A1337&amp;tr=udp%3A%2F%2Ftracker.coppersurfer.tk%3A6969&amp;tr=udp%3A%2F%2Fexodus.desync.com%3A6969","seeders":4,"leechers":0,"uploader":"FatFreddy69","files":-1,"time":1262862302,"description":"Finding Forrester (2000)\n\n( Sean Connery )\n\nUser Rating: 7.2 \n\nAwards(4 wins &amp; 8 nominations): &lt;a href=&quot;\nhttp://www.imdb.com/title/tt0181536/awards&quot; rel=&quot;nofollow&quot; target=&quot;_NEW&quot;&gt;\nhttp://www.imdb.com/title/tt0181536/awards&lt;/a&gt;\n\nuser comments: &lt;a href=&quot;\nhttp://www.imdb.com/title/tt0181536/usercomments&quot; rel=&quot;nofollow&quot; target=&quot;_NEW&quot;&gt;\nhttp://www.imdb.com/title/tt0181536/usercomments&lt;/a&gt;\n\n\n\n\nIn an ordinary place, he found the one person to make his life\n\n extraordinary. \n\nAn afro-american teen writing prodigy finds a mentor in a reclusive author.\n\nsummary: &lt;a href=&quot;\nhttp://www.imdb.com/title/tt0181536/plotsummary&quot; rel=&quot;nofollow&quot; target=&quot;_NEW&quot;&gt;\nhttp://www.imdb.com/title/tt0181536/plotsummary&lt;/a&gt; \n\n\n\nFormat                           : Matroska (mkv)\nFile size                        : 2.63 GiB\nDuration                         : 2h 10mn\nOverall bit rate                 : 2 880 Kbps\n\n\nVideo\nFormat/Info                      : AVC (Advanced Video Codec)\nCodec ID                         : V_MPEG4/ISO/AVC\nNominal bit rate                 : 2 400 Kbps\nWidth                            : 720 pixels\nHeight                           : 432 pixels\nDisplay aspect ratio             : 2.35:1\nFrame rate                       : 25.000 fps\nStream size                      : 2.17 GiB (82%)\nWriting library                  : x264 core 79\n\nAudio 1 ( English )\nFormat                           : AC-3\nBit rate mode                    : Constant\nBit rate                         : 448 Kbps\nChannel(s)                       : 6 channels\nChannel positions                : Front: L C R, Surround: L R, LFE\nSampling rate                    : 48.0 KHz\nStream size                      : 419 MiB (16%)\nLanguage                         : English\n\nAudio 2 ( Magyar ) (separate AC3), Constant 192 Kbps, 179 MB.\n \nSkip from download if you don't want it!\n\n\nSubtitles:\n\n English, Arabic, Bulgarian, Croatian, Czech, Danish, Dutch\n\n Estonian, Finnish, French, Greek, Hebrew, Hindi, Hungarian\n\n Icelandic, Italian, Norwegian, Polish, Portuguese(Brasil)\n\n Portuguese, Romanian, Slovenian, Spanish, Swedish, Turkish\n\nscreen shots: &lt;a href=&quot;\nhttp://i.imagehost.org/0538/Finding_Forrester_2000_mkv1.jpg&quot; rel=&quot;nofollow&quot; target=&quot;_NEW&quot;&gt;\nhttp://i.imagehost.org/0538/Finding_Forrester_2000_mkv1.jpg&lt;/a&gt;\n &lt;a href=&quot;\nhttp://i.imagehost.org/0564/Finding_Forrester_2000_mkv2.jpg&quot; rel=&quot;nofollow&quot; target=&quot;_NEW&quot;&gt;\nhttp://i.imagehost.org/0564/Finding_Forrester_2000_mkv2.jpg&lt;/a&gt;\n &lt;a href=&quot;\nhttp://i.imagehost.org/0056/Finding_Forrester_2000_mkv3.jpg&quot; rel=&quot;nofollow&quot; target=&quot;_NEW&quot;&gt;\nhttp://i.imagehost.org/0056/Finding_Forrester_2000_mkv3.jpg&lt;/a&gt;","torrent":{"xt":"urn:btih:4ab4a0a6a60cf743ebd7bf0be4a5c9ae992ea57f","amp;dn":"Finding+Forrester+%282000%29+x264+Eng%285.1%29+Hun%28sep.%29+multisub%2825%29","amp;tr":["udp%3A%2F%2Ftracker.openbittorrent.com%3A80","udp%3A%2F%2Fopen.demonii.com%3A1337","udp%3A%2F%2Ftracker.coppersurfer.tk%3A6969","udp%3A%2F%2Fexodus.desync.com%3A6969"],"infoHash":"4ab4a0a6a60cf743ebd7bf0be4a5c9ae992ea57f","infoHashBuffer":{"type":"Buffer","data":[74,180,160,166,166,12,247,67,235,215,191,11,228,165,201,174,153,46,165,127]},"announce":[],"urlList":[]}}